<svg width="51" height="50" viewBox="0 0 51 50" fill="none" xmlns="http://www.w3.org/2000/svg">
<path d="M39.8474 28.0445C39.7974 27.9445 39.6973 27.8444 39.5473 27.8444H22.193V10.4901C22.193 10.3901 22.143 10.24 21.9929 10.19C21.8929 10.14 21.7428 10.19 21.6428 10.24L3.98841 27.9445C3.88838 28.0445 3.88838 28.2445 3.98841 28.3946L5.08868 29.4949L6.13895 30.5451L19.4923 43.8985L20.5425 44.9487L21.6428 46.049C21.6928 46.099 21.7929 46.149 21.8429 46.149C21.9429 46.149 21.9929 46.099 22.0429 46.049L39.6973 28.3946C39.8474 28.2946 39.8974 28.1445 39.8474 28.0445ZM20.1425 29.895C20.1925 29.945 20.2925 29.995 20.3425 29.995H35.1462L20.7926 44.3486L20.1425 43.6984L32.3955 31.4453C32.4955 31.3453 32.4955 31.2453 32.4455 31.0953C32.3955 30.9952 32.2955 30.8952 32.1455 30.8952H19.1422V17.8419C19.1422 17.7419 19.0922 17.5919 18.9421 17.5419C18.8421 17.4919 18.6921 17.5419 18.5921 17.5919L6.339 29.895L5.68883 29.2448L20.0424 14.8912V29.6949C20.0424 29.7949 20.0924 29.8449 20.1425 29.895ZM18.5921 31.4453C18.6421 31.4954 18.7421 31.5454 18.7921 31.5454H31.4953L19.7423 43.2483L19.0922 42.5981L28.7446 32.9457C28.8446 32.8457 28.8446 32.7457 28.7946 32.5956C28.7446 32.4956 28.6446 32.3956 28.4945 32.3956H17.5918V21.4929C17.5918 21.3928 17.5418 21.2428 17.3918 21.1928C17.2917 21.1428 17.1417 21.1928 17.0417 21.2428L7.43927 30.9952L6.78911 30.3451L18.542 18.5921V31.2453C18.542 31.2953 18.542 31.3953 18.5921 31.4453ZM17.0917 32.9457C17.1417 32.9957 17.2417 33.0457 17.2917 33.0457H27.7444L18.6421 42.198L17.9919 41.5479L25.0437 34.4961C25.1437 34.3961 25.1437 34.2961 25.0937 34.146C25.0437 34.046 24.9436 33.946 24.7936 33.946H16.0914V25.2438C16.0914 25.1438 16.0414 24.9937 15.8914 24.9437C15.7914 24.8937 15.6413 24.9437 15.5413 24.9937L8.53955 32.0455L7.88939 31.3953L16.9917 22.2931V32.7457C16.9917 32.7957 17.0417 32.8957 17.0917 32.9457ZM15.5913 34.4961C15.6413 34.5461 15.7413 34.5961 15.7914 34.5961H24.0934L17.5418 41.0978L16.8916 40.4476L21.3428 35.9965C21.4428 35.8965 21.4428 35.7964 21.3928 35.6464C21.3427 35.5464 21.2427 35.4463 21.0927 35.4463H14.541V28.8947C14.541 28.7947 14.491 28.6446 14.341 28.5946C14.241 28.5446 14.0909 28.5946 13.9909 28.6446L9.5398 33.0958L8.93965 32.4956L15.4913 25.944V34.246C15.4913 34.3461 15.4913 34.4461 15.5913 34.4961ZM14.0409 35.9965C14.0909 36.0465 14.191 36.0965 14.241 36.0965H20.3925L16.4915 39.9975L15.8414 39.3473L17.6918 37.4969C17.7919 37.3968 17.7919 37.2968 17.7418 37.1468C17.6918 37.0467 17.5918 36.9467 17.4418 36.9467H13.4408L12.9907 36.4966V32.4956C12.9907 32.3956 12.9406 32.2455 12.7906 32.1955C12.6906 32.1455 12.5405 32.1955 12.4405 32.2455L10.5901 34.096L9.9399 33.4458L13.8909 29.4949V35.6464C13.9409 35.8464 13.9909 35.9465 14.0409 35.9965ZM12.4405 35.9465L11.0902 34.5961L12.4405 33.2458V35.9465ZM15.3913 38.9472L14.0409 37.5969H16.6916L15.3913 38.9472ZM21.8929 45.3988L21.2427 44.7487L36.0964 29.895C36.1965 29.7949 36.1965 29.6949 36.1465 29.5449C36.0964 29.4448 35.9964 29.3448 35.8464 29.3448H20.6426V14.141C20.6426 14.041 20.5926 13.891 20.4425 13.8409C20.3425 13.7909 20.1925 13.8409 20.0924 13.891L5.28874 28.8447L4.63857 28.1945L21.5928 11.2403V28.1945C21.5928 28.2946 21.6428 28.3446 21.6928 28.3946C21.7429 28.4446 21.8429 28.4946 21.8929 28.4946H38.8471L21.8929 45.3988Z" fill="#CDA176"/>
<path d="M24.9937 25.5939H47.9495L24.9937 48.5496L1.43786 24.9937L25.4439 1.03776C25.6939 0.787697 25.6939 0.437609 25.4439 0.187547C25.1938 -0.0625156 24.8437 -0.0625156 24.5936 0.187547L0.187547 24.5436C-0.0625156 24.7937 -0.0625156 25.1438 0.187547 25.3938L24.5936 49.7999C24.6937 49.9 24.8437 50 25.0438 50C25.1938 50 25.3438 49.95 25.4939 49.7999L49.9 25.3938C50.05 25.2438 50.1 24.9437 50.05 24.7437C49.95 24.4936 49.7499 24.3936 49.4999 24.3936H24.9937C24.6437 24.3936 24.3936 24.6437 24.3936 24.9937C24.3936 25.3438 24.6437 25.5939 24.9937 25.5939Z" fill="white"/>
</svg>
