<svg width="81" height="80" viewBox="0 0 81 80" fill="none" xmlns="http://www.w3.org/2000/svg">
<path d="M63.7559 44.8713C63.6758 44.7112 63.5158 44.5512 63.2757 44.5512H35.5088V16.7843C35.5088 16.6242 35.4288 16.3842 35.1887 16.3041C35.0287 16.2241 34.7886 16.3041 34.6286 16.3842L6.3815 44.7112C6.22146 44.8713 6.22146 45.1914 6.3815 45.4314L8.14194 47.1919L9.82237 48.8723L31.1877 70.2376L32.8681 71.9181L34.6286 73.6785C34.7086 73.7585 34.8686 73.8385 34.9487 73.8385C35.1087 73.8385 35.1887 73.7585 35.2687 73.6785L63.5158 45.4314C63.7559 45.2714 63.8359 45.0313 63.7559 44.8713ZM32.228 47.832C32.308 47.912 32.468 47.9921 32.548 47.9921H56.234L33.2682 70.9578L32.228 69.9176L51.8329 50.3126C51.9929 50.1526 51.9929 49.9926 51.9129 49.7525C51.8329 49.5925 51.6728 49.4324 51.4328 49.4324H30.6276V28.5472C30.6276 28.3872 30.5475 28.1471 30.3075 28.0671C30.1474 27.9871 29.9074 28.0671 29.7473 28.1471L10.1424 47.832L9.10218 46.7918L32.0679 23.826V47.5119C32.0679 47.672 32.1479 47.752 32.228 47.832ZM29.7473 50.3126C29.8274 50.3927 29.9874 50.4727 30.0674 50.4727H50.3925L31.5878 69.1974L30.5475 68.1571L45.9914 52.7132C46.1515 52.5532 46.1515 52.3932 46.0714 52.1531C45.9914 51.9931 45.8314 51.833 45.5913 51.833H28.1469V34.3887C28.1469 34.2286 28.0669 33.9886 27.8269 33.9085C27.6668 33.8285 27.4268 33.9085 27.2667 33.9886L11.9029 49.5925L10.8626 48.5522L29.6673 29.7475V49.9926C29.6673 50.0726 29.6673 50.2326 29.7473 50.3126ZM27.3467 52.7132C27.4268 52.7933 27.5868 52.8733 27.6668 52.8733H44.391L29.8274 67.517L28.7871 66.4767L40.0699 55.1939C40.23 55.0338 40.23 54.8738 40.15 54.6337C40.0699 54.4737 39.9099 54.3137 39.6698 54.3137H25.7463V40.3902C25.7463 40.2301 25.6663 39.9901 25.4263 39.91C25.2662 39.83 25.0262 39.91 24.8661 39.9901L13.6633 51.2729L12.6231 50.2326L27.1867 35.669V52.3932C27.1867 52.4732 27.2667 52.6332 27.3467 52.7132ZM24.9461 55.1939C25.0262 55.2739 25.1862 55.3539 25.2662 55.3539H38.5495L28.0669 65.7565L27.0267 64.7163L34.1485 57.5945C34.3085 57.4344 34.3085 57.2744 34.2285 57.0343C34.1484 56.8743 33.9884 56.7143 33.7484 56.7143H23.2657V46.2316C23.2657 46.0716 23.1857 45.8315 22.9456 45.7515C22.7856 45.6715 22.5455 45.7515 22.3855 45.8315L15.2637 52.9533L14.3035 51.9931L24.7861 41.5104V54.7938C24.7861 54.9538 24.7861 55.1138 24.9461 55.1939ZM22.4655 57.5945C22.5455 57.6745 22.7056 57.7545 22.7856 57.7545H32.6281L26.3865 63.9961L25.3462 62.9558L28.307 59.9951C28.467 59.835 28.467 59.675 28.387 59.4349C28.307 59.2749 28.1469 59.1149 27.9069 59.1149H21.5053L20.7851 58.3947V51.9931C20.7851 51.833 20.7051 51.593 20.465 51.513C20.305 51.4329 20.0649 51.513 19.9049 51.593L16.9441 54.5537L15.9039 53.5135L22.2255 47.1919V57.0343C22.3055 57.3544 22.3855 57.5145 22.4655 57.5945ZM19.9049 57.5145L17.7443 55.3539L19.9049 53.1934V57.5145ZM24.6261 62.3157L22.4655 60.1551H26.7066L24.6261 62.3157ZM35.0287 72.6382L33.9884 71.598L57.7543 47.832C57.9144 47.672 57.9144 47.5119 57.8344 47.2719C57.7544 47.1118 57.5943 46.9518 57.3543 46.9518H33.0282V22.6257C33.0282 22.4657 32.9482 22.2256 32.7081 22.1456C32.548 22.0656 32.308 22.1456 32.1479 22.2256L8.46203 46.1516L7.42176 45.1113L34.5485 17.9846V45.1113C34.5485 45.2714 34.6286 45.3514 34.7086 45.4314C34.7886 45.5114 34.9486 45.5915 35.0287 45.5915H62.1554L35.0287 72.6382Z" fill="#CDA176"/>
<path d="M39.99 40.9502H76.7192L39.99 77.6794L2.30058 39.99L40.7102 1.66041C41.1103 1.26031 41.1103 0.700175 40.7102 0.300075C40.3101 -0.100025 39.7499 -0.100025 39.3498 0.300075L0.300075 39.2698C-0.100025 39.6699 -0.100025 40.2301 0.300075 40.6302L39.3498 79.6799C39.5099 79.84 39.7499 80 40.07 80C40.3101 80 40.5501 79.92 40.7902 79.6799L79.84 40.6302C80.08 40.3901 80.16 39.91 80.08 39.5899C79.92 39.1898 79.5999 39.0298 79.1998 39.0298H39.99C39.4299 39.0298 39.0298 39.4299 39.0298 39.99C39.0298 40.5501 39.4299 40.9502 39.99 40.9502Z" fill="#414042"/>
</svg>
